HIERARCHY
ROOT Hips
{
  OFFSET 5.72205e-005 65.662 3.42586
  CHANNELS 6 Xposition Yposition Zposition Zrotation Xrotation Yrotation
  JOINT Chest
  {
    OFFSET 0 8.7983 -4.7612
    CHANNELS 6 Xposition Yposition Zposition Zrotation Xrotation Yrotation
    JOINT Chest2
    {
      OFFSET 0 8.0291 0.4195
      CHANNELS 6 Xposition Yposition Zposition Zrotation Xrotation Yrotation
      JOINT Chest3
      {
        OFFSET 0 9.9351 -2.2114
        CHANNELS 6 Xposition Yposition Zposition Zrotation Xrotation Yrotation
        JOINT Neck
        {
          OFFSET 0 22.3885 -0.4656
          CHANNELS 6 Xposition Yposition Zposition Zrotation Xrotation Yrotation
          JOINT Head
          {
            OFFSET -0.0001 12.643 3.4389
            CHANNELS 6 Xposition Yposition Zposition Zrotation Xrotation Yrotation
            End Site
            {
              OFFSET 0.0001 17.6655 0.5274
            }
          }
        }
        JOINT LeftCollar
        {
          OFFSET 2.2603 21.606 7.4023
          CHANNELS 6 Xposition Yposition Zposition Zrotation Xrotation Yrotation
          JOINT LeftShoulder
          {
            OFFSET 13.5163 -1.1332 -5.0146
            CHANNELS 6 Xposition Yposition Zposition Zrotation Xrotation Yrotation
            JOINT LeftElbow
            {
              OFFSET -0.0995 -28.05 -0.2431
              CHANNELS 6 Xposition Yposition Zposition Zrotation Xrotation Yrotation
              JOINT LeftWrist
              {
                OFFSET 0.0679 -23.3996 -0.1402
                CHANNELS 6 Xposition Yposition Zposition Zrotation Xrotation Yrotation
                JOINT LeftFinger1
                {
                  OFFSET 0.7932 -9.069 2.5189
                  CHANNELS 6 Xposition Yposition Zposition Zrotation Xrotation Yrotation
                  JOINT LeftFinger11
                  {
                    OFFSET -0.8272 -3.3923 0.5977
                    CHANNELS 6 Xposition Yposition Zposition Zrotation Xrotation Yrotation
                    JOINT LeftFinger12
                    {
                      OFFSET -0.5649 -2.3158 0.4082
                      CHANNELS 6 Xposition Yposition Zposition Zrotation Xrotation Yrotation
                      End Site
                      {
                        OFFSET -0.4919 -1.6479 0.2673
                      }
                    }
                  }
                }
                JOINT LeftFinger2
                {
                  OFFSET 0.9159 -9.2044 0.2193
                  CHANNELS 6 Xposition Yposition Zposition Zrotation Xrotation Yrotation
                  JOINT LeftFinger21
                  {
                    OFFSET 0.0117 -4.1944 -0.0248
                    CHANNELS 6 Xposition Yposition Zposition Zrotation Xrotation Yrotation
                    JOINT LeftFinger22
                    {
                      OFFSET 0.0071 -2.3249 -0.0142
                      CHANNELS 6 Xposition Yposition Zposition Zrotation Xrotation Yrotation
                      End Site
                      {
                        OFFSET -0.1475 -2.0882 0.0028
                      }
                    }
                  }
                }
                JOINT LeftFinger3
                {
                  OFFSET 0.6113 -8.7231 -2.0637
                  CHANNELS 6 Xposition Yposition Zposition Zrotation Xrotation Yrotation
                  JOINT LeftFinger31
                  {
                    OFFSET -0.1927 -3.8059 -0.2383
                    CHANNELS 6 Xposition Yposition Zposition Zrotation Xrotation Yrotation
                    JOINT LeftFinger32
                    {
                      OFFSET -0.1091 -2.1688 -0.1362
                      CHANNELS 6 Xposition Yposition Zposition Zrotation Xrotation Yrotation
                      End Site
                      {
                        OFFSET -0.2358 -1.9176 -0.0906
                      }
                    }
                  }
                }
                JOINT LeftFinger4
                {
                  OFFSET -0.6151 -8.0947 -3.5641
                  CHANNELS 6 Xposition Yposition Zposition Zrotation Xrotation Yrotation
                  JOINT LeftFinger41
                  {
                    OFFSET -0.4882 -2.341 -0.6462
                    CHANNELS 6 Xposition Yposition Zposition Zrotation Xrotation Yrotation
                    JOINT LeftFinger42
                    {
                      OFFSET -0.3575 -1.7167 -0.4742
                      CHANNELS 6 Xposition Yposition Zposition Zrotation Xrotation Yrotation
                      End Site
                      {
                        OFFSET -0.4187 -1.5237 -0.3496
                      }
                    }
                  }
                }
                JOINT LeftFinger0
                {
                  OFFSET -1.42 -1.8761 1.4223
                  CHANNELS 6 Xposition Yposition Zposition Zrotation Xrotation Yrotation
                  JOINT LeftFinger01
                  {
                    OFFSET -1.1471 -3.4929 2.6334
                    CHANNELS 6 Xposition Yposition Zposition Zrotation Xrotation Yrotation
                    JOINT LeftFinger02
                    {
                      OFFSET -0.823 -2.3 1.6571
                      CHANNELS 6 Xposition Yposition Zposition Zrotation Xrotation Yrotation
                      End Site
                      {
                        OFFSET -0.5822 -1.6914 1.1582
                      }
                    }
                  }
                }
              }
            }
          }
        }
        JOINT RightCollar
        {
          OFFSET -2.2603 21.606 7.4023
          CHANNELS 6 Xposition Yposition Zposition Zrotation Xrotation Yrotation
          JOINT RightShoulder
          {
            OFFSET -13.5187 -1.1334 -5.0155
            CHANNELS 6 Xposition Yposition Zposition Zrotation Xrotation Yrotation
            JOINT RightElbow
            {
              OFFSET 0.0994 -28.0499 -0.2431
              CHANNELS 6 Xposition Yposition Zposition Zrotation Xrotation Yrotation
              JOINT RightWrist
              {
                OFFSET -0.0679 -23.3996 -0.1402
                CHANNELS 6 Xposition Yposition Zposition Zrotation Xrotation Yrotation
                JOINT RightFinger1
                {
                  OFFSET -0.7932 -9.0691 2.5189
                  CHANNELS 6 Xposition Yposition Zposition Zrotation Xrotation Yrotation
                  JOINT RightFinger11
                  {
                    OFFSET 0.8272 -3.3923 0.5977
                    CHANNELS 6 Xposition Yposition Zposition Zrotation Xrotation Yrotation
                    JOINT RightFinger12
                    {
                      OFFSET 0.565 -2.3158 0.4082
                      CHANNELS 6 Xposition Yposition Zposition Zrotation Xrotation Yrotation
                      End Site
                      {
                        OFFSET 0.4919 -1.6479 0.2673
                      }
                    }
                  }
                }
                JOINT RightFinger2
                {
                  OFFSET -0.916 -9.2044 0.2193
                  CHANNELS 6 Xposition Yposition Zposition Zrotation Xrotation Yrotation
                  JOINT RightFinger21
                  {
                    OFFSET -0.0117 -4.1944 -0.0248
                    CHANNELS 6 Xposition Yposition Zposition Zrotation Xrotation Yrotation
                    JOINT RightFinger22
                    {
                      OFFSET -0.0071 -2.3249 -0.0142
                      CHANNELS 6 Xposition Yposition Zposition Zrotation Xrotation Yrotation
                      End Site
                      {
                        OFFSET 0.1475 -2.0882 0.0028
                      }
                    }
                  }
                }
                JOINT RightFinger3
                {
                  OFFSET -0.6113 -8.7231 -2.0637
                  CHANNELS 6 Xposition Yposition Zposition Zrotation Xrotation Yrotation
                  JOINT RightFinger31
                  {
                    OFFSET 0.1927 -3.8059 -0.2383
                    CHANNELS 6 Xposition Yposition Zposition Zrotation Xrotation Yrotation
                    JOINT RightFinger32
                    {
                      OFFSET 0.1091 -2.1688 -0.1362
                      CHANNELS 6 Xposition Yposition Zposition Zrotation Xrotation Yrotation
                      End Site
                      {
                        OFFSET 0.2358 -1.9176 -0.0906
                      }
                    }
                  }
                }
                JOINT RightFinger4
                {
                  OFFSET 0.6151 -8.0947 -3.564
                  CHANNELS 6 Xposition Yposition Zposition Zrotation Xrotation Yrotation
                  JOINT RightFinger41
                  {
                    OFFSET 0.4882 -2.341 -0.6462
                    CHANNELS 6 Xposition Yposition Zposition Zrotation Xrotation Yrotation
                    JOINT RightFinger42
                    {
                      OFFSET 0.3574 -1.7166 -0.4742
                      CHANNELS 6 Xposition Yposition Zposition Zrotation Xrotation Yrotation
                      End Site
                      {
                        OFFSET 0.4187 -1.5237 -0.3496
                      }
                    }
                  }
                }
                JOINT RightFinger0
                {
                  OFFSET 1.4199 -1.8761 1.4221
                  CHANNELS 6 Xposition Yposition Zposition Zrotation Xrotation Yrotation
                  JOINT RightFinger01
                  {
                    OFFSET 1.1472 -3.4929 2.6336
                    CHANNELS 6 Xposition Yposition Zposition Zrotation Xrotation Yrotation
                    JOINT RightFinger02
                    {
                      OFFSET 0.8229 -2.3 1.6571
                      CHANNELS 6 Xposition Yposition Zposition Zrotation Xrotation Yrotation
                      End Site
                      {
                        OFFSET 0.5822 -1.6914 1.1582
                      }
                    }
                  }
                }
              }
            }
          }
        }
      }
    }
  }
  JOINT RightHip
  {
    OFFSET -9.412 3.9771 -0.7758
    CHANNELS 6 Xposition Yposition Zposition Zrotation Xrotation Yrotation
    JOINT RightKnee
    {
      OFFSET -0.7531 -40.938 0
      CHANNELS 6 Xposition Yposition Zposition Zrotation Xrotation Yrotation
      JOINT RightAnkle
      {
        OFFSET 0 -40.1986 0
        CHANNELS 6 Xposition Yposition Zposition Zrotation Xrotation Yrotation
        JOINT RightToe
        {
          OFFSET 0 -4.4182 9.239
          CHANNELS 6 Xposition Yposition Zposition Zrotation Xrotation Yrotation
          End Site
          {
            OFFSET 0 0 6.1981
          }
        }
      }
    }
  }
  JOINT LeftHip
  {
    OFFSET 9.4119 3.9773 -0.7758
    CHANNELS 6 Xposition Yposition Zposition Zrotation Xrotation Yrotation
    JOINT LeftKnee
    {
      OFFSET 0.7532 -40.9383 0
      CHANNELS 6 Xposition Yposition Zposition Zrotation Xrotation Yrotation
      JOINT LeftAnkle
      {
        OFFSET 0 -40.1986 0
        CHANNELS 6 Xposition Yposition Zposition Zrotation Xrotation Yrotation
        JOINT LeftToe
        {
          OFFSET 0 -4.4182 9.239
          CHANNELS 6 Xposition Yposition Zposition Zrotation Xrotation Yrotation
          End Site
          {
            OFFSET 0 0 6.1981
          }
        }
      }
    }
  }
}
MOTION
Frames:	4
Frame Time:	0.0333333
5.72205e-005 65.662 3.42586 0 0 -0 0 8.7983 -4.7612 0 0 -0 0 8.0291 0.4195 0 0 -0 0 9.9351 -2.2114 0 0 -0 0 22.3885 -0.4656 0 0 -0 -0.0001 12.643 3.4389 0 0 -0 2.2603 21.606 7.4023 0 0 -12.5014 13.5163 -1.1332 -5.0146 88.1196 14.2451 10.6914 -0.0995 -28.05 -0.2431 -0.00160068 -0.00239207 0.000740045 0.0679 -23.3996 -0.1402 -8.4365e-005 7.00714e-005 -9.52055e-007 0.7932 -9.069 2.5189 9.93923e-017 -1.98785e-016 -1.59028e-015 -0.8272 -3.3923 0.5977 9.93923e-017 -5.96354e-016 -1.59028e-015 -0.5649 -2.3158 0.4082 -9.93923e-017 -5.96354e-016 -1.59028e-015 0.9159 -9.2044 0.2193 9.93923e-017 -1.98785e-016 -1.59028e-015 0.0117 -4.1944 -0.0248 -0.0128176 0.00232552 8.52707e-005 0.0071 -2.3249 -0.0142 9.93923e-017 5.96354e-016 -0 0.6113 -8.7231 -2.0637 9.93923e-017 -1.98785e-016 -1.59028e-015 -0.1927 -3.8059 -0.2383 -0.0160551 0.00299681 0.000857156 -0.1091 -2.1688 -0.1362 -2.48481e-016 0 3.18055e-015 -0.6151 -8.0947 -3.5641 9.93923e-017 -1.98785e-016 -1.59028e-015 -0.4882 -2.341 -0.6462 -0.0125865 0.0031206 0.00282719 -0.3575 -1.7167 -0.4742 0 1.98785e-016 -0 -1.42 -1.8761 1.4223 9.93923e-017 -1.98785e-016 -1.59028e-015 -1.1471 -3.4929 2.6334 9.93923e-017 -5.96354e-016 -1.59028e-015 -0.823 -2.3 1.6571 -9.93923e-017 -5.96354e-016 -1.59028e-015 -2.2603 21.606 7.4023 -0.865644 0.16582 7.03859 -13.5187 -1.1334 -5.0155 -88.0329 10.2057 -10.5567 0.0994 -28.0499 -0.2431 0.0015593 -0.00248883 -0.000788628 -0.0679 -23.3996 -0.1402 7.87605e-005 4.10553e-005 1.24965e-005 -0.7932 -9.0691 2.5189 -3.97569e-016 -7.95139e-016 3.18055e-015 0.8272 -3.3923 0.5977 -1.98785e-016 -3.97569e-016 3.18055e-015 0.565 -2.3158 0.4082 -1.98785e-016 0 3.18055e-015 -0.916 -9.2044 0.2193 -3.97569e-016 -7.95139e-016 3.18055e-015 -0.0117 -4.1944 -0.0248 0.0129473 0.00231697 -8.70038e-005 -0.0071 -2.3249 -0.0142 9.93923e-017 -7.95139e-016 1.59028e-015 -0.6113 -8.7231 -2.0637 -3.97569e-016 -7.95139e-016 3.18055e-015 0.1927 -3.8059 -0.2383 0.0163314 0.00303369 -0.000872333 0.1091 -2.1688 -0.1362 3.97569e-016 7.95139e-016 -3.18055e-015 0.6151 -8.0947 -3.564 -3.97569e-016 -7.95139e-016 3.18055e-015 0.4882 -2.341 -0.6462 0.0145763 0.00367772 -0.00326275 0.3574 -1.7166 -0.4742 9.93923e-017 -3.97569e-016 -0 1.4199 -1.8761 1.4221 -3.97569e-016 -7.95139e-016 3.18055e-015 1.1472 -3.4929 2.6336 -1.98785e-016 -3.97569e-016 3.18055e-015 0.8229 -2.3 1.6571 -1.98785e-016 0 3.18055e-015 -9.412 3.9771 -0.7758 3.42482 1.32465 -0.0626183 -0.7531 -40.938 0 0.000117508 0.717283 0.000978199 0 -40.1986 0 -3.4257 -2.04197 -0.0604716 8.88178e-016 -4.4182 9.239 6.47761e-025 0 -0 9.4119 3.9773 -0.7758 -3.42483 1.34017 0.0627307 0.7532 -40.9383 -2.22045e-016 -0.000193936 0.682302 -0.0013703 -8.88179e-016 -40.1986 0 3.42574 -2.02253 0.0595886 -8.88178e-016 -4.4182 9.239 -8.45714e-024 0 -7.40531e-025 
-3.76941 21.1317 53.1775 -43.5814 -33.0364 119.809 0 8.7983 -4.7612 -0.212859 1.83764 -0.0772917 -7.10543e-015 8.0291 0.4195 -0.423567 3.67552 -0.14784 7.10543e-015 9.9351 -2.2114 -0.423572 3.67553 -0.147854 0 22.3885 -0.4656 -2.87807e-006 -17.8194 3.18592e-006 -0.0001 12.643 3.4389 -0.0449941 -23.2548 -0.0240556 2.2603 21.606 7.4023 19.7426 6.6988 -17.3127 13.5163 -1.1332 -5.0146 86.7764 -7.51439 54.5341 -0.0995 -28.05 -0.2431 -116.462 -80.6368 -99.9776 0.0679 -23.3996 -0.1402 6.21444 -5.70937 -7.90354 0.7932 -9.069 2.5189 -7.95139e-016 -3.18055e-015 -0 -0.8272 -3.3923 0.5977 7.95139e-016 -3.18055e-015 3.18055e-015 -0.5649 -2.3158 0.4082 -7.95139e-016 -4.77083e-015 3.18055e-015 0.9159 -9.2044 0.2193 -7.95139e-016 -3.18055e-015 -0 0.0117 -4.1944 -0.0248 -0.0127996 0.00231818 7.92961e-005 0.0071 -2.3249 -0.0142 -1.76556e-031 -3.18055e-015 -3.18055e-015 0.6113 -8.7231 -2.0637 -7.95139e-016 -3.18055e-015 -0 -0.1927 -3.8059 -0.2383 -0.016042 0.00299575 0.000848264 -0.1091 -2.1688 -0.1362 2.38542e-015 -6.36111e-015 3.18055e-015 -0.6151 -8.0947 -3.5641 -7.95139e-016 -3.18055e-015 -0 -0.4882 -2.341 -0.6462 -0.0126261 0.0031318 0.00283082 -0.3575 -1.7167 -0.4742 1.35802e-005 -5.60328e-006 4.13275e-007 -1.42 -1.8761 1.4223 -7.95139e-016 -3.18055e-015 -0 -1.1471 -3.4929 2.6334 7.95139e-016 -3.18055e-015 3.18055e-015 -0.823 -2.3 1.6571 -7.95139e-016 -4.77083e-015 3.18055e-015 -2.2603 21.606 7.4023 -20.8111 6.8115 12.0989 -13.5187 -1.1334 -5.0155 -85.456 -15.162 -54.0947 0.0994 -28.0499 -0.2431 118.01 -81.3748 100.805 -0.0679 -23.3996 -0.1402 -16.2621 -8.19438 -1.24239 -0.7932 -9.0691 2.5189 -1.59028e-015 -1.59028e-015 7.35503e-015 0.8272 -3.3923 0.5977 5.99335e-006 -8.60392e-008 -3.46623e-006 0.565 -2.3158 0.4082 -1.65242e-006 3.70164e-007 -3.95864e-007 -0.916 -9.2044 0.2193 -1.59028e-015 -1.59028e-015 7.35503e-015 -0.0117 -4.1944 -0.0248 0.0129789 0.00232493 -8.68588e-005 -0.0071 -2.3249 -0.0142 1.59028e-015 -1.59028e-015 -6.36111e-015 -0.6113 -8.7231 -2.0637 -1.59028e-015 -1.59028e-015 7.35503e-015 0.1927 -3.8059 -0.2383 0.0162527 0.0030183 -0.000869365 0.1091 -2.1688 -0.1362 -3.30489e-006 3.69607e-007 -7.91897e-007 0.6151 -8.0947 -3.564 -1.59028e-015 -1.59028e-015 7.35503e-015 0.4882 -2.341 -0.6462 0.0145714 0.00367557 -0.00326364 0.3574 -1.7166 -0.4742 -2.48968e-006 -2.7477e-007 2.25251e-006 1.4199 -1.8761 1.4221 -1.59028e-015 -1.59028e-015 7.35503e-015 1.1472 -3.4929 2.6336 5.99335e-006 -8.60392e-008 -3.46623e-006 0.8229 -2.3 1.6571 -1.65242e-006 3.70164e-007 -3.95864e-007 -9.412 3.9771 -0.7758 -69.6187 -40.2588 -63.8681 -0.7531 -40.938 -7.10543e-015 175.158 74.1343 -178.138 0 -40.1986 -7.10543e-015 -5.68449 7.04319 -2.04647 7.10543e-015 -4.4182 9.239 1.09821e-007 -1.3575e-006 -2.30209e-006 9.4119 3.9773 -0.7758 69.6173 -40.26 63.8653 0.7532 -40.9383 0 -175.097 74.1337 178.076 -8.88178e-016 -40.1986 8.88179e-016 5.679 7.04355 2.05439 0 -4.4182 9.239 4.67839e-006 1.84527e-006 9.79384e-007 
1.85504 3.13281 79.7321 43.3442 -70.9564 -135.04 -3.55271e-015 8.7983 -4.7612 -0.337214 2.64404 -0.104173 0 8.0291 0.4195 -0.670708 5.28864 -0.193067 0 9.9351 -2.2114 -0.670709 5.28864 -0.193071 0 22.3885 -0.4656 -5.3375e-006 -25.655 -8.80035e-007 -0.0001 12.643 3.4389 -0.0726816 -33.5363 -0.0382654 2.2603 21.606 7.4023 28.9308 9.83155 -19.6848 13.5163 -1.1332 -5.0146 86.5499 -17.3876 74.2256 -0.0995 -28.05 -0.2431 121.355 -52.2448 143.612 0.0679 -23.3996 -0.1402 8.92848 -8.37149 -11.4946 0.7932 -9.069 2.5189 8.89974e-006 -5.02087e-006 7.0414e-006 -0.8272 -3.3923 0.5977 1.61742e-006 -3.3844e-006 -9.39543e-006 -0.5649 -2.3158 0.4082 1.50026e-006 8.33222e-007 -7.89143e-007 0.9159 -9.2044 0.2193 8.89974e-006 -5.02087e-006 7.0414e-006 0.0117 -4.1944 -0.0248 -0.0128375 0.00232669 7.98734e-005 0.0071 -2.3249 -0.0142 1.59028e-015 -3.18055e-015 8.74653e-015 0.6113 -8.7231 -2.0637 8.89974e-006 -5.02087e-006 7.0414e-006 -0.1927 -3.8059 -0.2383 -0.0160839 0.003007 0.000852172 -0.1091 -2.1688 -0.1362 3.73628e-006 -1.81891e-005 -5.14267e-006 -0.6151 -8.0947 -3.5641 8.89974e-006 -5.02087e-006 7.0414e-006 -0.4882 -2.341 -0.6462 -0.0125856 0.00311877 0.00281476 -0.3575 -1.7167 -0.4742 3.18055e-015 -3.18055e-015 -1.07344e-014 -1.42 -1.8761 1.4223 8.89974e-006 -5.02087e-006 7.0414e-006 -1.1471 -3.4929 2.6334 1.61742e-006 -3.3844e-006 -9.39543e-006 -0.823 -2.3 1.6571 1.50026e-006 8.33222e-007 -7.89143e-007 -2.2603 21.606 7.4023 -30.1182 9.91244 14.5976 -13.5187 -1.1334 -5.0155 -84.5368 -26.8339 -73.3305 0.0994 -28.0499 -0.2431 -118.747 -51.984 -142.808 -0.0679 -23.3996 -0.1402 -23.6295 -11.8435 -1.98179 -0.7932 -9.0691 2.5189 -5.33701e-007 -6.88378e-006 -3.75638e-006 0.8272 -3.3923 0.5977 -1.59028e-015 -1.59028e-014 1.59028e-015 0.565 -2.3158 0.4082 -4.77083e-015 -1.27222e-014 1.59028e-015 -0.916 -9.2044 0.2193 -5.33701e-007 -6.88378e-006 -3.75638e-006 -0.0117 -4.1944 -0.0248 0.0129384 0.00231905 -9.48119e-005 -0.0071 -2.3249 -0.0142 -3.18055e-015 3.18055e-015 -3.18055e-015 -0.6113 -8.7231 -2.0637 -5.33701e-007 -6.88378e-006 -3.75638e-006 0.1927 -3.8059 -0.2383 0.0163142 0.00303628 -0.000874471 0.1091 -2.1688 -0.1362 8.58976e-006 -6.31785e-006 3.87115e-006 0.6151 -8.0947 -3.564 -5.33701e-007 -6.88378e-006 -3.75638e-006 0.4882 -2.341 -0.6462 0.0145844 0.00368377 -0.00325929 0.3574 -1.7166 -0.4742 4.77083e-015 0 4.77083e-015 1.4199 -1.8761 1.4221 -5.33701e-007 -6.88378e-006 -3.75638e-006 1.1472 -3.4929 2.6336 -1.59028e-015 -1.59028e-014 1.59028e-015 0.8229 -2.3 1.6571 -4.77083e-015 -1.27222e-014 1.59028e-015 -9.412 3.9771 -0.7758 -112.987 -28.9585 -93.3365 -0.7531 -40.938 7.10543e-015 177.83 29.0553 176.823 0 -40.1986 7.10543e-015 -5.5863 9.36744 -4.5958 -2.66454e-015 -4.4182 9.239 -9.54166e-015 -6.36111e-015 2.38542e-015 9.4119 3.9773 -0.7758 112.988 -28.9665 93.3374 0.7532 -40.9383 0 -177.814 29.0564 -176.849 0 -40.1986 1.42109e-014 5.57612 9.36828 4.6082 0 -4.4182 9.239 1.1015e-006 5.03964e-006 -8.12046e-007 
-0.00071142 7.10895 74.3942 -0.0131249 -71.0095 179.991 0 8.7983 -4.7612 -0.308125 2.4196 -0.0999257 -5.55112e-017 8.0291 0.4195 -0.612843 4.83968 -0.187063 -1.11022e-016 9.9351 -2.2114 -0.612844 4.83968 -0.187064 0 22.3885 -0.4656 8.63623e-006 -23.5069 2.44404e-006 -0.0001 12.643 3.4389 -0.0656861 -30.8444 -0.0342456 2.2603 21.606 7.4023 26.7114 9.487 -19.4941 13.5163 -1.1332 -5.0146 86.5709 -15.2019 69.839 -0.0995 -28.05 -0.2431 130.434 -61.0192 151.53 0.0679 -23.3996 -0.1402 8.08542 -7.97818 -10.8512 0.7932 -9.069 2.5189 3.18055e-015 9.54166e-015 -3.18055e-015 -0.8272 -3.3923 0.5977 -4.02255e-006 -6.27552e-006 -6.14433e-006 -0.5649 -2.3158 0.4082 -4.77083e-015 -6.36111e-015 3.18055e-015 0.9159 -9.2044 0.2193 3.18055e-015 9.54166e-015 -3.18055e-015 0.0117 -4.1944 -0.0248 -0.0128292 0.00231785 6.97973e-005 0.0071 -2.3249 -0.0142 -4.41391e-031 3.18055e-015 7.95139e-015 0.6113 -8.7231 -2.0637 3.18055e-015 9.54166e-015 -3.18055e-015 -0.1927 -3.8059 -0.2383 -0.0160443 0.0029864 0.000845419 -0.1091 -2.1688 -0.1362 6.36111e-015 -6.36111e-015 -7.95139e-016 -0.6151 -8.0947 -3.5641 3.18055e-015 9.54166e-015 -3.18055e-015 -0.4882 -2.341 -0.6462 -0.0125895 0.00311371 0.00281774 -0.3575 -1.7167 -0.4742 -3.18055e-015 -1.27222e-014 -0 -1.42 -1.8761 1.4223 3.18055e-015 9.54166e-015 -3.18055e-015 -1.1471 -3.4929 2.6334 -4.02255e-006 -6.27552e-006 -6.14433e-006 -0.823 -2.3 1.6571 -4.77083e-015 -6.36111e-015 3.18055e-015 -2.2603 21.606 7.4023 -27.9009 9.56573 14.4053 -13.5187 -1.1334 -5.0155 -84.5943 -24.0076 -69.0884 0.0994 -28.0499 -0.2431 -127.626 -60.8132 -150.26 -0.0679 -23.3996 -0.1402 -21.7679 -11.2789 -1.69063 -0.7932 -9.0691 2.5189 2.06736e-014 6.36111e-015 2.14687e-014 0.8272 -3.3923 0.5977 9.43145e-008 3.32827e-006 1.82547e-006 0.565 -2.3158 0.4082 1.49341e-006 -6.06783e-006 8.79072e-007 -0.916 -9.2044 0.2193 2.06736e-014 6.36111e-015 2.14687e-014 -0.0117 -4.1944 -0.0248 0.0129699 0.00231443 -8.55786e-005 -0.0071 -2.3249 -0.0142 3.24474e-006 1.83311e-006 -5.44421e-007 -0.6113 -8.7231 -2.0637 2.06736e-014 6.36111e-015 2.14687e-014 0.1927 -3.8059 -0.2383 0.0163159 0.00303401 -0.000868093 0.1091 -2.1688 -0.1362 6.36111e-015 9.54166e-015 -3.97569e-015 0.6151 -8.0947 -3.564 2.06736e-014 6.36111e-015 2.14687e-014 0.4882 -2.341 -0.6462 0.0145779 0.00369249 -0.00326423 0.3574 -1.7166 -0.4742 5.02016e-006 -9.23091e-006 5.81123e-006 1.4199 -1.8761 1.4221 2.06736e-014 6.36111e-015 2.14687e-014 1.1472 -3.4929 2.6336 9.43145e-008 3.32827e-006 1.82547e-006 0.8229 -2.3 1.6571 1.49341e-006 -6.06783e-006 8.79072e-007 -9.412 3.9771 -0.7758 -105.021 -32.4765 -88.0992 -0.7531 -40.938 1.42109e-014 177.581 38.9782 177.985 0 -40.1986 0 -5.89128 9.60817 -3.63762 0 -4.4182 9.239 1.19634e-005 1.23097e-005 -4.15683e-006 9.4119 3.9773 -0.7758 105.02 -32.4838 88.0983 0.7532 -40.9383 1.42109e-014 -177.561 38.9791 -178.014 0 -40.1986 7.10543e-015 5.88243 9.60875 3.64893 1.77636e-015 -4.4182 9.239 1.10906e-005 7.1091e-006 -2.92741e-006 
